# xmcd
#
# Track frame offsets:
#	150
#	17896
#	41827
#	65900
#	92914
#	111789
#	126823
#	148127
#	170018
#	187310
#	203902
#	224323
#	241751
#	260920
#	284131
#	303557
#	323846
#
# Disc length: 4638 seconds
#
# Revision: 0
# Processed by: cddbd v1.5.2PL0 Copyright (c) Steve Scherf et al.
# Submitted via: EasyCDDAExtractor 16.0.6.1
#
DISCID=1e121c11
DTITLE=Φοίβος - 20 Χρόνια Φοίβος 20 Χρόνια Επιτυχίες Cd6
DYEAR=2012
DGENRE=Σύνχρωνα Λαϊκά
TTITLE0=Disco girl (Σάκης Ρουβάς)
TTITLE1=Υποφέρω (Δέσποινα βανδή)
TTITLE2=Το gucci φόρεμα (Γιώργος Μαζωνάκης)
TTITLE3=Το κάτι (Καίτη Γαρμπή)
TTITLE4=Γειά (Δέσποινα Βανδή)
TTITLE5=Τέλεια (Βικτώρια Χαλκίτη)
TTITLE6=Μου ταιριάζεις (Διονύσης Σχοινάς)
TTITLE7=Καινούργια αρχή (Έλλη Κοκκίνου)
TTITLE8=Η Γη και η Σελήνη (Δέσποινα Βανδή)
TTITLE9=Θεός (Νίνο)
TTITLE10=Το λάθος (Καίτη Γαρμπή)
TTITLE11=Come along now (Δέσποινα Βανδή)
TTITLE12=Το μωρό μου (Γιώργος Λεμπέσης)
TTITLE13=Ο χρόνος (Ελισάβετ Σπανού)
TTITLE14=Κομμάτι απ΄την καρδιά σου (Δέσποινα Βανδή)
TTITLE15=1 2 3 (Θάνος Πετρέλης)
TTITLE16=Χριστούγεννα (Δέσποινα Βανδή)
EXTD=
EXTT0=
EXTT1=
EXTT2=
EXTT3=
EXTT4=
EXTT5=
EXTT6=
EXTT7=
EXTT8=
EXTT9=
EXTT10=
EXTT11=
EXTT12=
EXTT13=
EXTT14=
EXTT15=
EXTT16=
PLAYORDER=
